<?xml version="1.0" encoding="UTF-8"?> <svg xmlns="http://www.w3.org/2000/svg" width="132" height="132" viewBox="0 0 132 132" fill="none"> <g filter="url(#filter0_di_4967_172669)"> <circle cx="66" cy="62" r="48" fill="white"></circle> </g> <path d="M65.9768 88.8636L50.3928 84.5373L46.9199 45.5854H85.0804L81.6039 84.5312L65.9768 88.8636Z" fill="#264DE4"></path> <path d="M78.6274 82.0515L81.5983 48.7705H66V85.5523L78.6274 82.0515Z" fill="#2965F1"></path> <path d="M54.8809 63.2168L55.309 67.994H65.9997V63.2168H54.8809Z" fill="#EBEBEB"></path> <path d="M54.0215 53.5479L54.4558 58.3252H66.0007V53.5479H54.0215Z" fill="#EBEBEB"></path> <path d="M66.0006 75.624L65.9797 75.6296L60.6592 74.1929L60.3191 70.3828H55.5234L56.1927 77.8838L65.9787 80.6005L66.0006 80.5944V75.624Z" fill="#EBEBEB"></path> <path d="M55.9004 35H61.6865V37.4197H58.32V39.8393H61.6865V42.259H55.9004V35Z" fill="black"></path> <path d="M62.8438 35H68.6299V37.104H65.2634V37.5249H68.6299V42.3642H62.8438V40.1549H66.2102V39.7341H62.8438V35Z" fill="black"></path> <path d="M69.7871 35H75.5732V37.104H72.2068V37.5249H75.5732V42.3642H69.7871V40.1549H73.1536V39.7341H69.7871V35Z" fill="black"></path> <path d="M77.0891 63.2172L77.9516 53.5479H65.9844V58.3252H72.7161L72.2814 63.2172H65.9844V67.9944H71.8671L71.3126 74.1902L65.9844 75.6283V80.5985L75.7781 77.8842L75.8499 77.0771L76.9725 64.5L77.0891 63.2172Z" fill="white"></path> <defs> <filter id="filter0_di_4967_172669" x="0" y="0" width="132" height="132" filterUnits="userSpaceOnUse" color-interpolation-filters="sRGB"> <feFlood flood-opacity="0" result="BackgroundImageFix"></feFlood> <feColorMatrix in="SourceAlpha" type="matrix" values="0 0 0 0 0 0 0 0 0 0 0 0 0 0 0 0 0 0 127 0" result="hardAlpha"></feColorMatrix> <feOffset dy="4"></feOffset> <feGaussianBlur stdDeviation="9"></feGaussianBlur> <feColorMatrix type="matrix" values="0 0 0 0 0.575 0 0 0 0 0.575 0 0 0 0 0.575 0 0 0 0.35 0"></feColorMatrix> <feBlend mode="normal" in2="BackgroundImageFix" result="effect1_dropShadow_4967_172669"></feBlend> <feBlend mode="normal" in="SourceGraphic" in2="effect1_dropShadow_4967_172669" result="shape"></feBlend> <feColorMatrix in="SourceAlpha" type="matrix" values="0 0 0 0 0 0 0 0 0 0 0 0 0 0 0 0 0 0 127 0" result="hardAlpha"></feColorMatrix> <feOffset dy="1"></feOffset> <feComposite in2="hardAlpha" operator="arithmetic" k2="-1" k3="1"></feComposite> <feColorMatrix type="matrix" values="0 0 0 0 1 0 0 0 0 1 0 0 0 0 1 0 0 0 0.3 0"></feColorMatrix> <feBlend mode="normal" in2="shape" result="effect2_innerShadow_4967_172669"></feBlend> </filter> </defs> </svg> 