<?xml version="1.0" encoding="UTF-8"?> <svg xmlns="http://www.w3.org/2000/svg" width="132" height="132" viewBox="0 0 132 132" fill="none"> <g filter="url(#filter0_di_4967_172651)"> <circle cx="66" cy="62" r="48" fill="white"></circle> </g> <path d="M50.4316 35H52.8655V37.4047H55.092V35H57.526V42.282H55.0921V39.8436H52.8656V42.282H50.4317L50.4316 35Z" fill="black"></path> <path d="M60.7267 37.4148H58.584V35H65.3045V37.4148H63.1607V42.282H60.7268L60.7267 37.4148Z" fill="black"></path> <path d="M66.3711 35H68.9091L70.4701 37.5587L72.0296 35H74.5685V42.282H72.1446V38.6726L70.4701 41.2618H70.4283L68.7525 38.6726V42.282H66.3711V35Z" fill="black"></path> <path d="M75.7793 35H78.214V39.875H81.6367V42.282H75.7793V35Z" fill="black"></path> <path fill-rule="evenodd" clip-rule="evenodd" d="M50.3533 84.6629L45.75 45.6123H86.25L81.6436 84.6568L65.9768 89L50.3533 84.6629ZM59.6627 63.2886L59.225 58.384H77.5522L77.981 53.5946H53.9909L55.2826 68.0779H71.8811L71.3253 74.2893L65.9836 75.7311L65.9797 75.7326L60.6459 74.2924L60.3049 70.4726H55.4971L56.1681 77.9928L65.9788 80.7162L75.8021 77.9925L76.9996 64.5747L77.1163 63.2886H59.6627Z" fill="black"></path> <defs> <filter id="filter0_di_4967_172651" x="0" y="0" width="132" height="132" filterUnits="userSpaceOnUse" color-interpolation-filters="sRGB"> <feFlood flood-opacity="0" result="BackgroundImageFix"></feFlood> <feColorMatrix in="SourceAlpha" type="matrix" values="0 0 0 0 0 0 0 0 0 0 0 0 0 0 0 0 0 0 127 0" result="hardAlpha"></feColorMatrix> <feOffset dy="4"></feOffset> <feGaussianBlur stdDeviation="9"></feGaussianBlur> <feColorMatrix type="matrix" values="0 0 0 0 0.575 0 0 0 0 0.575 0 0 0 0 0.575 0 0 0 0.35 0"></feColorMatrix> <feBlend mode="normal" in2="BackgroundImageFix" result="effect1_dropShadow_4967_172651"></feBlend> <feBlend mode="normal" in="SourceGraphic" in2="effect1_dropShadow_4967_172651" result="shape"></feBlend> <feColorMatrix in="SourceAlpha" type="matrix" values="0 0 0 0 0 0 0 0 0 0 0 0 0 0 0 0 0 0 127 0" result="hardAlpha"></feColorMatrix> <feOffset dy="1"></feOffset> <feComposite in2="hardAlpha" operator="arithmetic" k2="-1" k3="1"></feComposite> <feColorMatrix type="matrix" values="0 0 0 0 1 0 0 0 0 1 0 0 0 0 1 0 0 0 0.3 0"></feColorMatrix> <feBlend mode="normal" in2="shape" result="effect2_innerShadow_4967_172651"></feBlend> </filter> </defs> </svg> 