<?xml version="1.0" encoding="UTF-8"?> <svg xmlns="http://www.w3.org/2000/svg" width="132" height="132" viewBox="0 0 132 132" fill="none"> <g filter="url(#filter0_di_4967_172636)"> <circle cx="66" cy="62" r="48" fill="white"></circle> </g> <g clip-path="url(#clip0_4967_172636)"> <path d="M93 35H39V89H93V35Z" fill="#F1DC50"></path> <path d="M66 59.75C66 70.4357 66 76.4357 66 77.75C66 79.7214 64.8235 82.25 61.5 82.25C56.1329 82.25 55.875 77.75 55.875 77.75M85.7774 65.4111C84.4272 63.137 82.6374 62 80.408 62C76.9268 62 75 64.25 75 66.5C75 68.75 76.125 71 80.6439 72.125C83.5195 72.8409 86.25 74.375 86.25 77.75C86.25 81.125 83.2902 82.25 80.625 82.25C77.2189 82.25 74.9689 80.75 73.875 77.75" stroke="#333333" stroke-width="2"></path> </g> <defs> <filter id="filter0_di_4967_172636" x="0" y="0" width="132" height="132" filterUnits="userSpaceOnUse" color-interpolation-filters="sRGB"> <feFlood flood-opacity="0" result="BackgroundImageFix"></feFlood> <feColorMatrix in="SourceAlpha" type="matrix" values="0 0 0 0 0 0 0 0 0 0 0 0 0 0 0 0 0 0 127 0" result="hardAlpha"></feColorMatrix> <feOffset dy="4"></feOffset> <feGaussianBlur stdDeviation="9"></feGaussianBlur> <feColorMatrix type="matrix" values="0 0 0 0 0.575 0 0 0 0 0.575 0 0 0 0 0.575 0 0 0 0.35 0"></feColorMatrix> <feBlend mode="normal" in2="BackgroundImageFix" result="effect1_dropShadow_4967_172636"></feBlend> <feBlend mode="normal" in="SourceGraphic" in2="effect1_dropShadow_4967_172636" result="shape"></feBlend> <feColorMatrix in="SourceAlpha" type="matrix" values="0 0 0 0 0 0 0 0 0 0 0 0 0 0 0 0 0 0 127 0" result="hardAlpha"></feColorMatrix> <feOffset dy="1"></feOffset> <feComposite in2="hardAlpha" operator="arithmetic" k2="-1" k3="1"></feComposite> <feColorMatrix type="matrix" values="0 0 0 0 1 0 0 0 0 1 0 0 0 0 1 0 0 0 0.3 0"></feColorMatrix> <feBlend mode="normal" in2="shape" result="effect2_innerShadow_4967_172636"></feBlend> </filter> <clipPath id="clip0_4967_172636"> <rect width="54" height="54" fill="white" transform="translate(39 35)"></rect> </clipPath> </defs> </svg> 