<?xml version="1.0" encoding="UTF-8"?> <svg xmlns="http://www.w3.org/2000/svg" width="132" height="132" viewBox="0 0 132 132" fill="none"> <g filter="url(#filter0_di_4705_199583)"> <circle cx="66" cy="62" r="48" fill="white"></circle> </g> <g clip-path="url(#clip0_4705_199583)"> <path d="M35 64.2724V37.0054L58.5169 50.6389V59.7279L42.839 50.6389V68.8169L35 64.2724Z" fill="#00B0FF"></path> <path d="M58.5156 50.6389L82.0326 37.0054V64.2724L66.3546 73.3614L58.5156 68.8169L74.1936 59.7279V50.6389L58.5156 59.7279V50.6389Z" fill="#0081CB"></path> <path d="M58.5156 68.8169V77.9059L74.1936 86.9949V77.9059L58.5156 68.8169Z" fill="#00B0FF"></path> <path d="M74.1953 86.9949L97.7123 73.3614V55.1834L89.8733 59.7279V68.8169L74.1953 77.9059V86.9949ZM89.8733 50.6389V41.5499L97.7123 37.0054V46.0944L89.8733 50.6389Z" fill="#0081CB"></path> </g> <defs> <filter id="filter0_di_4705_199583" x="0" y="0" width="132" height="132" filterUnits="userSpaceOnUse" color-interpolation-filters="sRGB"> <feFlood flood-opacity="0" result="BackgroundImageFix"></feFlood> <feColorMatrix in="SourceAlpha" type="matrix" values="0 0 0 0 0 0 0 0 0 0 0 0 0 0 0 0 0 0 127 0" result="hardAlpha"></feColorMatrix> <feOffset dy="4"></feOffset> <feGaussianBlur stdDeviation="9"></feGaussianBlur> <feColorMatrix type="matrix" values="0 0 0 0 0.575 0 0 0 0 0.575 0 0 0 0 0.575 0 0 0 0.35 0"></feColorMatrix> <feBlend mode="normal" in2="BackgroundImageFix" result="effect1_dropShadow_4705_199583"></feBlend> <feBlend mode="normal" in="SourceGraphic" in2="effect1_dropShadow_4705_199583" result="shape"></feBlend> <feColorMatrix in="SourceAlpha" type="matrix" values="0 0 0 0 0 0 0 0 0 0 0 0 0 0 0 0 0 0 127 0" result="hardAlpha"></feColorMatrix> <feOffset dy="1"></feOffset> <feComposite in2="hardAlpha" operator="arithmetic" k2="-1" k3="1"></feComposite> <feColorMatrix type="matrix" values="0 0 0 0 1 0 0 0 0 1 0 0 0 0 1 0 0 0 0.3 0"></feColorMatrix> <feBlend mode="normal" in2="shape" result="effect2_innerShadow_4705_199583"></feBlend> </filter> <clipPath id="clip0_4705_199583"> <rect width="62.7119" height="50" fill="white" transform="translate(35 37)"></rect> </clipPath> </defs> </svg> 