<?xml version="1.0" encoding="UTF-8"?> <svg xmlns="http://www.w3.org/2000/svg" width="132" height="132" viewBox="0 0 132 132" fill="none"> <g filter="url(#filter0_di_4967_172641)"> <circle cx="66" cy="62" r="48" fill="white"></circle> </g> <path d="M83.3988 53.5253C82.8387 53.3325 82.2582 53.15 81.6605 52.9775C81.7588 52.5766 81.8489 52.1809 81.9291 51.7919C83.2449 45.4045 82.3846 40.2587 79.4467 38.5645C76.6296 36.94 72.0225 38.6338 67.3696 42.6831C66.9222 43.0725 66.4735 43.4848 66.025 43.9168C65.7262 43.631 65.4278 43.3547 65.1302 43.0905C60.2538 38.7607 55.3659 36.9361 52.4309 38.6352C49.6166 40.2644 48.7831 45.1019 49.9676 51.1553C50.082 51.74 50.2157 52.3371 50.3669 52.9442C49.6751 53.1405 49.0073 53.3499 48.3683 53.5726C42.6512 55.5658 39 58.6897 39 61.93C39 65.2766 42.9196 68.6332 48.8743 70.6686C49.3443 70.8292 49.8319 70.981 50.3344 71.1252C50.1713 71.7818 50.0294 72.4252 49.9103 73.0528C48.7809 79.0011 49.6629 83.7243 52.4698 85.3433C55.369 87.0152 60.2348 85.2967 64.9728 81.1551C65.3473 80.8277 65.7231 80.4805 66.0996 80.1166C66.5876 80.5865 67.0748 81.0313 67.5594 81.4484C72.1488 85.3977 76.6814 86.9924 79.4857 85.3689C82.3821 83.6922 83.3234 78.6184 82.1013 72.4452C82.008 71.9738 81.8994 71.4921 81.7774 71.0019C82.1191 70.9009 82.4546 70.7966 82.7817 70.6882C88.9722 68.6371 93 65.3212 93 61.93C93 58.678 89.2311 55.533 83.3988 53.5253ZM82.0561 68.4985C81.7609 68.5962 81.4579 68.6907 81.1492 68.7823C80.4658 66.6188 79.5434 64.3181 78.4147 61.9412C79.4918 59.6209 80.3785 57.3497 81.0428 55.2002C81.5952 55.36 82.1313 55.5286 82.648 55.7065C87.645 57.4268 90.6931 59.9702 90.6931 61.93C90.6931 64.0175 87.4012 66.7274 82.0561 68.4985ZM79.8383 72.8932C80.3787 75.6229 80.4559 78.0909 80.0979 80.0202C79.7763 81.7538 79.1295 82.9096 78.3298 83.3725C76.628 84.3576 72.9887 83.0772 69.0639 79.6997C68.614 79.3126 68.1608 78.8992 67.7061 78.4616C69.2277 76.7975 70.7484 74.8629 72.2326 72.7144C74.8431 72.4827 77.3094 72.104 79.546 71.587C79.6561 72.0313 79.754 72.4671 79.8383 72.8932ZM57.4098 83.2023C55.7471 83.7895 54.4229 83.8063 53.6224 83.3448C51.9191 82.3623 51.211 78.57 52.1769 73.483C52.2875 72.9004 52.4192 72.302 52.571 71.6903C54.7831 72.1795 57.2313 72.5314 59.8481 72.7436C61.3423 74.846 62.9069 76.7785 64.4836 78.4706C64.1391 78.8031 63.796 79.1197 63.4548 79.4181C61.3596 81.2495 59.2601 82.5488 57.4098 83.2023ZM49.6204 68.4857C46.9873 67.5857 44.8128 66.416 43.3223 65.1397C41.983 63.9927 41.3068 62.854 41.3068 61.93C41.3068 59.9637 44.2383 57.4556 49.1276 55.7509C49.7209 55.5441 50.3419 55.3492 50.9864 55.1661C51.6621 57.3641 52.5485 59.6622 53.6182 61.9861C52.5347 64.3445 51.6356 66.6792 50.9533 68.903C50.4938 68.771 50.0487 68.632 49.6204 68.4857ZM52.2315 50.7123C51.2167 45.5259 51.8907 41.6134 53.5867 40.6317C55.3932 39.5858 59.3881 41.077 63.5985 44.8155C63.8676 45.0545 64.1378 45.3046 64.4087 45.5634C62.8398 47.248 61.2895 49.166 59.8086 51.256C57.2689 51.4914 54.8379 51.8695 52.6027 52.3759C52.4622 51.8106 52.3377 51.2552 52.2315 50.7123ZM75.5247 56.464C74.9903 55.541 74.4418 54.6399 73.8825 53.7634C75.6055 53.9812 77.2562 54.2703 78.8064 54.6241C78.341 56.1157 77.761 57.6752 77.0781 59.274C76.5883 58.344 76.0702 57.4064 75.5247 56.464ZM66.0258 47.212C67.0898 48.3648 68.1554 49.6518 69.2035 51.0482C68.1473 50.9983 67.0781 50.9724 66 50.9724C64.9321 50.9724 63.8708 50.9977 62.8211 51.0468C63.8703 49.6633 64.9451 48.378 66.0258 47.212ZM56.466 56.4799C55.9323 57.4054 55.4238 58.338 54.9417 59.2723C54.2699 57.6791 53.6952 56.1124 53.2257 54.5997C54.7664 54.2549 56.4094 53.973 58.1214 53.7593C57.5543 54.6439 57.0012 55.5517 56.466 56.4797V56.4799ZM58.1707 70.2651C56.4019 70.0678 54.7342 69.8004 53.1939 69.4651C53.6709 67.9254 54.2583 66.3253 54.9443 64.6978C55.4276 65.6314 55.9381 66.5644 56.4752 67.4919H56.4753C57.0223 68.4369 57.589 69.3625 58.1707 70.2651ZM66.0896 76.8106C64.9962 75.6309 63.9057 74.326 62.8406 72.9224C63.8745 72.9629 64.9287 72.9837 66 72.9837C67.1007 72.9837 68.1887 72.9589 69.2597 72.9112C68.2081 74.3401 67.1464 75.6471 66.0896 76.8106ZM77.1001 64.6149C77.8219 66.2599 78.4303 67.8517 78.9134 69.3652C77.3477 69.7224 75.6573 70.01 73.8762 70.2238C74.4368 69.3355 74.9901 68.4189 75.5339 67.476C76.084 66.5222 76.6063 65.5668 77.1001 64.6149ZM73.5357 66.3236C72.6915 67.7872 71.8249 69.1844 70.9451 70.5032C69.3427 70.6178 67.6873 70.6768 66 70.6768C64.3195 70.6768 62.6849 70.6246 61.1109 70.5225C60.1956 69.1863 59.3102 67.785 58.4715 66.3362H58.4716C57.6351 64.8913 56.8652 63.4342 56.1676 61.9853C56.865 60.5331 57.6329 59.0744 58.4646 57.6321L58.4644 57.6324C59.2984 56.1863 60.176 54.7918 61.0828 53.464C62.6888 53.3426 64.3356 53.2792 65.9999 53.2792H66C67.6718 53.2792 69.3207 53.3431 70.9262 53.4655C71.8192 54.7836 72.6909 56.1736 73.5281 57.6199C74.3748 59.0824 75.1526 60.5314 75.856 61.9526C75.1547 63.3981 74.3786 64.8617 73.5357 66.3236ZM78.2944 40.563C80.1027 41.6058 80.8059 45.8114 79.6698 51.3263C79.5973 51.6782 79.5157 52.0366 79.4271 52.3998C77.1867 51.8829 74.754 51.4982 72.2069 51.2593C70.7231 49.1463 69.1855 47.2254 67.6421 45.5623C68.057 45.1631 68.4714 44.7825 68.8841 44.4233C72.8707 40.9539 76.5968 39.5841 78.2944 40.563ZM66 57.108C68.6631 57.108 70.822 59.2668 70.822 61.93C70.822 64.593 68.6631 66.752 66 66.752C63.3369 66.752 61.178 64.593 61.178 61.93C61.178 59.2668 63.3369 57.108 66 57.108Z" fill="#00D8FF"></path> <defs> <filter id="filter0_di_4967_172641" x="0" y="0" width="132" height="132" filterUnits="userSpaceOnUse" color-interpolation-filters="sRGB"> <feFlood flood-opacity="0" result="BackgroundImageFix"></feFlood> <feColorMatrix in="SourceAlpha" type="matrix" values="0 0 0 0 0 0 0 0 0 0 0 0 0 0 0 0 0 0 127 0" result="hardAlpha"></feColorMatrix> <feOffset dy="4"></feOffset> <feGaussianBlur stdDeviation="9"></feGaussianBlur> <feColorMatrix type="matrix" values="0 0 0 0 0.575 0 0 0 0 0.575 0 0 0 0 0.575 0 0 0 0.35 0"></feColorMatrix> <feBlend mode="normal" in2="BackgroundImageFix" result="effect1_dropShadow_4967_172641"></feBlend> <feBlend mode="normal" in="SourceGraphic" in2="effect1_dropShadow_4967_172641" result="shape"></feBlend> <feColorMatrix in="SourceAlpha" type="matrix" values="0 0 0 0 0 0 0 0 0 0 0 0 0 0 0 0 0 0 127 0" result="hardAlpha"></feColorMatrix> <feOffset dy="1"></feOffset> <feComposite in2="hardAlpha" operator="arithmetic" k2="-1" k3="1"></feComposite> <feColorMatrix type="matrix" values="0 0 0 0 1 0 0 0 0 1 0 0 0 0 1 0 0 0 0.3 0"></feColorMatrix> <feBlend mode="normal" in2="shape" result="effect2_innerShadow_4967_172641"></feBlend> </filter> </defs> </svg> 