<?xml version="1.0" encoding="UTF-8"?> <svg xmlns="http://www.w3.org/2000/svg" width="132" height="132" viewBox="0 0 132 132" fill="none"> <g filter="url(#filter0_di_4967_172674)"> <circle cx="66" cy="62" r="48" fill="white"></circle> </g> <path d="M76.4163 72.0686C78.4091 71.8625 79.9209 70.1445 79.8522 68.0829C79.7834 66.0213 78.0655 64.372 76.004 64.372H75.8666C73.7363 64.4407 72.0871 66.2274 72.1558 68.3578C72.2245 69.3886 72.6368 70.2819 73.2553 70.9004C70.9189 75.5046 67.3456 78.8719 61.9857 81.6894C58.3437 83.6136 54.5642 84.3008 50.7848 83.8197C47.6925 83.4074 45.2874 82.033 43.7756 79.7652C41.5766 76.398 41.3705 72.7558 43.2259 69.1137C44.5315 66.5023 46.593 64.5782 47.8986 63.6161C47.6238 62.7227 47.2115 61.2109 47.0053 60.1114C37.0413 67.327 38.0721 77.0852 41.0956 81.6894C43.3633 85.1254 47.9673 87.2557 53.0524 87.2557C54.4268 87.2557 55.8011 87.1183 57.1755 86.7747C65.9713 85.0567 72.6368 79.834 76.4163 72.0686ZM88.5105 63.5474C83.288 57.4313 75.5917 54.064 66.7959 54.064H65.6964C65.0779 52.8271 63.7723 52.0025 62.3293 52.0025H62.1918C60.0616 52.0712 58.4124 53.8579 58.4811 55.9882C58.5498 58.0498 60.2677 59.6991 62.3293 59.6991H62.4667C63.9785 59.6304 65.2841 58.6683 65.8338 57.3626H67.0707C72.2933 57.3626 77.2409 58.8744 81.7075 61.8294C85.1434 64.0971 87.6172 67.0521 88.9916 70.6255C90.1598 73.5117 90.091 76.3293 88.8541 78.7344C86.93 82.3766 83.7003 84.3695 79.4399 84.3695C76.6912 84.3695 74.0799 83.5448 72.7056 82.9264C71.9497 83.6136 70.5753 84.7131 69.6133 85.4003C72.5681 86.7747 75.5917 87.5306 78.4778 87.5306C85.0747 87.5306 89.9536 83.8884 91.809 80.2463C93.8018 76.2605 93.6643 69.3886 88.5105 63.5474ZM53.6022 73.2369C53.6709 75.2985 55.3888 76.9477 57.4503 76.9477H57.5878C59.718 76.879 61.3672 75.0923 61.2985 72.962C61.2298 70.9004 59.5118 69.2511 57.4503 69.2511H57.3129C57.1755 69.2511 56.9693 69.2511 56.8319 69.3198C54.0145 64.6469 52.8463 59.5616 53.2586 54.064C53.5334 49.9409 54.9078 46.3674 57.3129 43.4125C59.3057 40.8699 63.1539 39.6329 65.7651 39.5642C73.0491 39.4267 76.1414 48.4977 76.3476 52.1399C77.2409 52.3461 78.7527 52.8271 79.7834 53.1707C78.9588 42.0381 72.0871 36.2656 65.4902 36.2656C59.3057 36.2656 53.6022 40.7324 51.3345 47.3295C48.1735 56.1256 50.235 64.5782 54.0832 71.244C53.7396 71.725 53.5334 72.4809 53.6022 73.2369Z" fill="#764ABC"></path> <defs> <filter id="filter0_di_4967_172674" x="0" y="0" width="132" height="132" filterUnits="userSpaceOnUse" color-interpolation-filters="sRGB"> <feFlood flood-opacity="0" result="BackgroundImageFix"></feFlood> <feColorMatrix in="SourceAlpha" type="matrix" values="0 0 0 0 0 0 0 0 0 0 0 0 0 0 0 0 0 0 127 0" result="hardAlpha"></feColorMatrix> <feOffset dy="4"></feOffset> <feGaussianBlur stdDeviation="9"></feGaussianBlur> <feColorMatrix type="matrix" values="0 0 0 0 0.575 0 0 0 0 0.575 0 0 0 0 0.575 0 0 0 0.35 0"></feColorMatrix> <feBlend mode="normal" in2="BackgroundImageFix" result="effect1_dropShadow_4967_172674"></feBlend> <feBlend mode="normal" in="SourceGraphic" in2="effect1_dropShadow_4967_172674" result="shape"></feBlend> <feColorMatrix in="SourceAlpha" type="matrix" values="0 0 0 0 0 0 0 0 0 0 0 0 0 0 0 0 0 0 127 0" result="hardAlpha"></feColorMatrix> <feOffset dy="1"></feOffset> <feComposite in2="hardAlpha" operator="arithmetic" k2="-1" k3="1"></feComposite> <feColorMatrix type="matrix" values="0 0 0 0 1 0 0 0 0 1 0 0 0 0 1 0 0 0 0.3 0"></feColorMatrix> <feBlend mode="normal" in2="shape" result="effect2_innerShadow_4967_172674"></feBlend> </filter> </defs> </svg> 