<?xml version="1.0" encoding="UTF-8"?> <svg xmlns="http://www.w3.org/2000/svg" width="132" height="132" viewBox="0 0 132 132" fill="none"> <g filter="url(#filter0_di_4967_172692)"> <circle cx="66" cy="62" r="48" fill="white"></circle> </g> <g clip-path="url(#clip0_4967_172692)"> <path d="M39 62V89H93V35H39V62ZM82.5173 59.849C83.8897 60.191 84.9337 60.8008 85.8945 61.7952C86.3917 62.3263 87.1297 63.2937 87.1882 63.5278C87.2062 63.5952 84.8573 65.1702 83.4352 66.0545C83.3835 66.0882 83.1765 65.8655 82.947 65.5235C82.2495 64.511 81.5227 64.0745 80.409 63.998C78.771 63.8855 77.718 64.7427 77.727 66.1737C77.7121 66.5257 77.7913 66.8752 77.9565 67.1862C78.3165 67.931 78.987 68.3787 81.084 69.2855C84.9518 70.9505 86.6055 72.0463 87.6338 73.6055C88.7812 75.3448 89.04 78.1235 88.2593 80.189C87.4043 82.4345 85.278 83.96 82.2855 84.464C81.3608 84.6283 79.167 84.6035 78.1725 84.4235C76.0035 84.0365 73.947 82.9655 72.678 81.5592C72.1808 81.0125 71.211 79.5793 71.2718 79.478C71.2965 79.442 71.5192 79.3048 71.7668 79.1608C72.0098 79.0235 72.9165 78.4992 73.7738 78.002L75.3263 77.102L75.6525 77.5835C76.107 78.2765 77.0993 79.2283 77.7 79.5455C79.4235 80.4545 81.7882 80.3263 82.9538 79.28C83.1881 79.0826 83.3736 78.8336 83.4958 78.5526C83.618 78.2715 83.6735 77.966 83.658 77.66C83.658 77.0345 83.5792 76.76 83.253 76.2875C82.8345 75.689 81.9772 75.185 79.5427 74.1275C76.7572 72.9282 75.558 72.1835 74.46 71C73.7747 70.219 73.2686 69.2974 72.9772 68.3C72.7725 67.5373 72.7207 65.6248 72.8828 64.8552C73.4565 62.162 75.4883 60.2878 78.42 59.7297C79.3717 59.5498 81.5835 59.6172 82.5173 59.849ZM69.8407 62.1035L69.8587 64.3153H62.8275V84.2863H57.855V64.3153H50.8305V62.1462C50.8305 60.9447 50.8552 59.9412 50.889 59.9187C50.916 59.8827 55.1933 59.8647 60.3773 59.8738L69.816 59.9008L69.8407 62.1035Z" fill="#3178C6"></path> </g> <defs> <filter id="filter0_di_4967_172692" x="0" y="0" width="132" height="132" filterUnits="userSpaceOnUse" color-interpolation-filters="sRGB"> <feFlood flood-opacity="0" result="BackgroundImageFix"></feFlood> <feColorMatrix in="SourceAlpha" type="matrix" values="0 0 0 0 0 0 0 0 0 0 0 0 0 0 0 0 0 0 127 0" result="hardAlpha"></feColorMatrix> <feOffset dy="4"></feOffset> <feGaussianBlur stdDeviation="9"></feGaussianBlur> <feColorMatrix type="matrix" values="0 0 0 0 0.575 0 0 0 0 0.575 0 0 0 0 0.575 0 0 0 0.35 0"></feColorMatrix> <feBlend mode="normal" in2="BackgroundImageFix" result="effect1_dropShadow_4967_172692"></feBlend> <feBlend mode="normal" in="SourceGraphic" in2="effect1_dropShadow_4967_172692" result="shape"></feBlend> <feColorMatrix in="SourceAlpha" type="matrix" values="0 0 0 0 0 0 0 0 0 0 0 0 0 0 0 0 0 0 127 0" result="hardAlpha"></feColorMatrix> <feOffset dy="1"></feOffset> <feComposite in2="hardAlpha" operator="arithmetic" k2="-1" k3="1"></feComposite> <feColorMatrix type="matrix" values="0 0 0 0 1 0 0 0 0 1 0 0 0 0 1 0 0 0 0.3 0"></feColorMatrix> <feBlend mode="normal" in2="shape" result="effect2_innerShadow_4967_172692"></feBlend> </filter> <clipPath id="clip0_4967_172692"> <rect width="54" height="54" fill="white" transform="translate(39 35)"></rect> </clipPath> </defs> </svg> 